STARTFONT 2.1
FONT variable
SIZE 14 78 78
FONTBOUNDINGBOX 16 14 0 -3

STARTPROPERTIES 10
Ownership "These ""glyphs"" are unencumbered"
POINT_SIZE 140
WEIGHT 10
RESOLUTION_X 78
RESOLUTION_Y 78
X_HEIGHT 7
QUAD_WIDTH 9
DEFAULT_CHAR 0
FONT_DESCENT 3
FONT_ASCENT 11
ENDPROPERTIES

CHARS 126

STARTCHAR ascii001
ENCODING 1
SWIDTH 571 0
DWIDTH 8 0
BBX 7 3 1 8
BITMAP
C6
6C
38
ENDCHAR

STARTCHAR ascii002
ENCODING 2
SWIDTH 571 0
DWIDTH 8 0
BBX 6 10 1 0
BITMAP
30
30
00
30
30
60
C0
CC
CC
78
ENDCHAR

STARTCHAR ascii003
ENCODING 3
SWIDTH 571 0
DWIDTH 8 0
BBX 7 10 0 -3
BITMAP
7C
C6
C0
C0
C6
C6
7C
00
18
30
ENDCHAR

STARTCHAR ascii004
ENCODING 4
SWIDTH 500 0
DWIDTH 7 0
BBX 6 2 1 8
BITMAP
CC
CC
ENDCHAR

STARTCHAR ascii005
ENCODING 5
SWIDTH 500 0
DWIDTH 7 0
BBX 4 3 3 8
BITMAP
C0
60
30
ENDCHAR

STARTCHAR ascii006
ENCODING 6
SWIDTH 714 0
DWIDTH 10 0
BBX 10 10 0 0
BITMAP
39C0
6300
6300
FFC0
6300
6300
6300
6300
6300
6300
ENDCHAR

STARTCHAR ascii007
ENCODING 7
SWIDTH 285 0
DWIDTH 4 0
BBX 3 5 0 5
BITMAP
60
C0
C0
E0
E0
ENDCHAR

STARTCHAR ascii0010
ENCODING 8
SWIDTH 357 0
DWIDTH 5 0
BBX 2 10 1 0
BITMAP
C0
C0
00
C0
C0
C0
C0
C0
C0
C0
ENDCHAR

STARTCHAR ascii011
ENCODING 9
SWIDTH 0 0
DWIDTH 0 0
BBX 0 0 0 10
BITMAP
ENDCHAR

STARTCHAR ascii012
ENCODING 10
SWIDTH 0 0
DWIDTH 0 0
BBX 0 0 0 10
BITMAP
ENDCHAR

STARTCHAR ascii013
ENCODING 11
SWIDTH 428 0
DWIDTH 6 0
BBX 4 3 2 8
BITMAP
30
60
C0
ENDCHAR

STARTCHAR ascii014
ENCODING 12
SWIDTH 0 0
DWIDTH 0 0
BBX 0 0 0 10
BITMAP
ENDCHAR

STARTCHAR ascii015
ENCODING 13
SWIDTH 0 0
DWIDTH 0 0
BBX 0 0 0 10
BITMAP
ENDCHAR

STARTCHAR ascii016
ENCODING 14
SWIDTH 500 0
DWIDTH 7 0
BBX 5 2 2 8
BITMAP
F8
F8
ENDCHAR

STARTCHAR ascii017
ENCODING 15
SWIDTH 1142 0
DWIDTH 16 0
BBX 0 0 16 10
BITMAP
ENDCHAR

STARTCHAR ascii020
ENCODING 16
SWIDTH 571 0
DWIDTH 8 0
BBX 7 2 1 8
BITMAP
76
DC
ENDCHAR

STARTCHAR ascii021
ENCODING 17
SWIDTH 1000 0
DWIDTH 14 0
BBX 13 10 0 0
BITMAP
39D8
6318
6300
FFD8
6318
6318
6318
6318
6318
6318
ENDCHAR

STARTCHAR ascii022
ENCODING 18
SWIDTH 1000 0
DWIDTH 14 0
BBX 13 10 0 0
BITMAP
39D8
6318
6318
FFD8
6318
6318
6318
6318
6318
6318
ENDCHAR

STARTCHAR ascii023
ENCODING 19
SWIDTH 1142 0
DWIDTH 16 0
BBX 16 2 0 3
BITMAP
FFFF
FFFF
ENDCHAR

STARTCHAR ascii024
ENCODING 20
SWIDTH 642 0
DWIDTH 9 0
BBX 8 10 0 0
BITMAP
3B
63
60
FB
63
63
63
63
63
63
ENDCHAR

STARTCHAR ascii025
ENCODING 21
SWIDTH 642 0
DWIDTH 9 0
BBX 8 10 0 0
BITMAP
3B
63
63
FB
63
63
63
63
63
63
ENDCHAR

STARTCHAR ascii026
ENCODING 22
SWIDTH 571 0
DWIDTH 8 0
BBX 8 2 0 3
BITMAP
FF
FF
ENDCHAR

STARTCHAR ascii027
ENCODING 23
SWIDTH 500 0
DWIDTH 7 0
BBX 6 3 1 8
BITMAP
84
FC
78
ENDCHAR

STARTCHAR ascii030
ENCODING 24
SWIDTH 1142 0
DWIDTH 16 0
BBX 8 2 4 3
BITMAP
FF
FF
ENDCHAR

STARTCHAR ascii031
ENCODING 25
SWIDTH 642 0
DWIDTH 9 0
BBX 0 0 9 10
BITMAP
ENDCHAR

STARTCHAR ascii032
ENCODING 26
SWIDTH 0 0
DWIDTH 0 0
BBX 0 0 0 10
BITMAP
ENDCHAR

STARTCHAR ascii033
ENCODING 27
SWIDTH 0 0
DWIDTH 0 0
BBX 0 0 0 10
BITMAP
ENDCHAR

STARTCHAR ascii034
ENCODING 28
SWIDTH 571 0
DWIDTH 8 0
BBX 0 0 8 10
BITMAP
ENDCHAR

STARTCHAR ascii035
ENCODING 29
SWIDTH 428 0
DWIDTH 6 0
BBX 2 2 4 -3
BITMAP
C0
C0
ENDCHAR

STARTCHAR ascii036
ENCODING 30
SWIDTH 571 0
DWIDTH 8 0
BBX 7 2 1 8
BITMAP
76
DC
ENDCHAR

STARTCHAR ascii037
ENCODING 31
SWIDTH 500 0
DWIDTH 7 0
BBX 5 4 2 7
BITMAP
70
D8
D8
70
ENDCHAR

STARTCHAR space
ENCODING 32
SWIDTH 500 0
DWIDTH 7 0
BBX 0 0 7 10
BITMAP
ENDCHAR

STARTCHAR exclam
ENCODING 33
SWIDTH 285 0
DWIDTH 4 0
BBX 2 10 1 0
BITMAP
C0
C0
C0
C0
C0
C0
C0
00
C0
C0
ENDCHAR

STARTCHAR quotedbl
ENCODING 34
SWIDTH 500 0
DWIDTH 7 0
BBX 5 4 1 6
BITMAP
D8
D8
D8
D8
ENDCHAR

STARTCHAR numbersign
ENCODING 35
SWIDTH 857 0
DWIDTH 12 0
BBX 10 10 1 0
BITMAP
0CC0
0CC0
1980
7FC0
3300
3300
FF80
6600
CC00
CC00
ENDCHAR

STARTCHAR dollar
ENCODING 36
SWIDTH 642 0
DWIDTH 9 0
BBX 7 12 1 -1
BITMAP
10
7C
D6
D6
D0
F8
3C
16
D6
D6
7C
10
ENDCHAR

STARTCHAR percent
ENCODING 37
SWIDTH 1000 0
DWIDTH 14 0
BBX 12 10 1 0
BITMAP
7180
D980
DB00
7300
0600
0600
0CE0
0DB0
19B0
18E0
ENDCHAR

STARTCHAR ampersand
ENCODING 38
SWIDTH 785 0
DWIDTH 11 0
BBX 9 10 1 0
BITMAP
3800
6C00
6C00
2800
3800
7D80
C700
C600
CF00
7B80
ENDCHAR

STARTCHAR quoteright
ENCODING 39
SWIDTH 285 0
DWIDTH 4 0
BBX 3 5 0 5
BITMAP
E0
E0
60
60
C0
ENDCHAR

STARTCHAR parenleft
ENCODING 40
SWIDTH 428 0
DWIDTH 6 0
BBX 4 12 1 -2
BITMAP
30
60
60
C0
C0
C0
C0
C0
C0
60
60
30
ENDCHAR

STARTCHAR parenright
ENCODING 41
SWIDTH 428 0
DWIDTH 6 0
BBX 4 12 1 -2
BITMAP
C0
60
60
30
30
30
30
30
30
60
60
C0
ENDCHAR

STARTCHAR asterisk
ENCODING 42
SWIDTH 500 0
DWIDTH 7 0
BBX 5 6 1 5
BITMAP
20
A8
70
70
A8
20
ENDCHAR

STARTCHAR plus
ENCODING 43
SWIDTH 714 0
DWIDTH 10 0
BBX 8 8 1 0
BITMAP
18
18
18
FF
FF
18
18
18
ENDCHAR

STARTCHAR comma
ENCODING 44
SWIDTH 285 0
DWIDTH 4 0
BBX 2 5 1 -3
BITMAP
C0
C0
40
40
80
ENDCHAR

STARTCHAR hyphen
ENCODING 45
SWIDTH 642 0
DWIDTH 9 0
BBX 6 2 2 3
BITMAP
FC
FC
ENDCHAR

STARTCHAR period
ENCODING 46
SWIDTH 285 0
DWIDTH 4 0
BBX 2 2 1 0
BITMAP
C0
C0
ENDCHAR

STARTCHAR slash
ENCODING 47
SWIDTH 571 0
DWIDTH 8 0
BBX 6 10 1 0
BITMAP
0C
0C
18
18
30
30
60
60
C0
C0
ENDCHAR

STARTCHAR zero
ENCODING 48
SWIDTH 642 0
DWIDTH 9 0
BBX 7 10 1 0
BITMAP
38
6C
C6
C6
C6
C6
C6
C6
6C
38
ENDCHAR

STARTCHAR one
ENCODING 49
SWIDTH 642 0
DWIDTH 9 0
BBX 5 10 2 0
BITMAP
18
38
F8
18
18
18
18
18
18
18
ENDCHAR

STARTCHAR two
ENCODING 50
SWIDTH 642 0
DWIDTH 9 0
BBX 7 10 1 0
BITMAP
7C
C6
C6
06
0C
18
30
60
C0
FE
ENDCHAR

STARTCHAR three
ENCODING 51
SWIDTH 642 0
DWIDTH 9 0
BBX 7 10 1 0
BITMAP
7C
C6
C6
06
1C
06
06
C6
C6
7C
ENDCHAR

STARTCHAR four
ENCODING 52
SWIDTH 642 0
DWIDTH 9 0
BBX 7 10 1 0
BITMAP
0C
1C
3C
2C
6C
CC
CC
FE
0C
0C
ENDCHAR

STARTCHAR five
ENCODING 53
SWIDTH 642 0
DWIDTH 9 0
BBX 7 10 1 0
BITMAP
7E
60
60
FC
C6
C6
06
C6
C6
7C
ENDCHAR

STARTCHAR six
ENCODING 54
SWIDTH 642 0
DWIDTH 9 0
BBX 7 10 1 0
BITMAP
3C
66
C6
C0
FC
C6
C6
C6
C6
7C
ENDCHAR

STARTCHAR seven
ENCODING 55
SWIDTH 642 0
DWIDTH 9 0
BBX 7 10 1 0
BITMAP
FE
06
0C
18
18
30
30
60
60
60
ENDCHAR

STARTCHAR eight
ENCODING 56
SWIDTH 642 0
DWIDTH 9 0
BBX 7 10 1 0
BITMAP
7C
C6
C6
C6
7C
C6
C6
C6
C6
7C
ENDCHAR

STARTCHAR nine
ENCODING 57
SWIDTH 642 0
DWIDTH 9 0
BBX 7 10 1 0
BITMAP
7C
C6
C6
C6
C6
7E
06
C6
CC
78
ENDCHAR

STARTCHAR colon
ENCODING 58
SWIDTH 285 0
DWIDTH 4 0
BBX 2 7 1 0
BITMAP
C0
C0
00
00
00
C0
C0
ENDCHAR

STARTCHAR semicolon
ENCODING 59
SWIDTH 285 0
DWIDTH 4 0
BBX 2 10 1 -3
BITMAP
C0
C0
00
00
00
C0
C0
40
40
80
ENDCHAR

STARTCHAR less
ENCODING 60
SWIDTH 571 0
DWIDTH 8 0
BBX 6 10 1 0
BITMAP
0C
18
30
60
C0
C0
60
30
18
0C
ENDCHAR

STARTCHAR equal
ENCODING 61
SWIDTH 571 0
DWIDTH 8 0
BBX 5 5 2 1
BITMAP
F8
F8
00
F8
F8
ENDCHAR

STARTCHAR greater
ENCODING 62
SWIDTH 571 0
DWIDTH 8 0
BBX 6 10 1 0
BITMAP
C0
60
30
18
0C
0C
18
30
60
C0
ENDCHAR

STARTCHAR question
ENCODING 63
SWIDTH 571 0
DWIDTH 8 0
BBX 6 10 1 0
BITMAP
78
CC
CC
0C
18
30
30
00
30
30
ENDCHAR

STARTCHAR at
ENCODING 64
SWIDTH 1000 0
DWIDTH 14 0
BBX 12 10 1 0
BITMAP
3FC0
6060
CF30
D9B0
D9B0
D9B0
D9A0
CEC0
6010
3FE0
ENDCHAR

STARTCHAR A
ENCODING 65
SWIDTH 642 0
DWIDTH 9 0
BBX 8 10 0 0
BITMAP
18
18
3C
3C
24
66
7E
66
C3
C3
ENDCHAR

STARTCHAR B
ENCODING 66
SWIDTH 571 0
DWIDTH 8 0
BBX 7 10 0 0
BITMAP
F8
CC
CC
CC
FC
C6
C6
C6
C6
FC
ENDCHAR

STARTCHAR C
ENCODING 67
SWIDTH 642 0
DWIDTH 9 0
BBX 8 10 0 0
BITMAP
3E
63
C3
C0
C0
C0
C3
C3
63
3E
ENDCHAR

STARTCHAR D
ENCODING 68
SWIDTH 642 0
DWIDTH 9 0
BBX 8 10 0 0
BITMAP
FC
C6
C3
C3
C3
C3
C3
C3
C6
FC
ENDCHAR

STARTCHAR E
ENCODING 69
SWIDTH 571 0
DWIDTH 8 0
BBX 7 10 0 0
BITMAP
FE
C0
C0
C0
FC
C0
C0
C0
C0
FE
ENDCHAR

STARTCHAR F
ENCODING 70
SWIDTH 571 0
DWIDTH 8 0
BBX 7 10 0 0
BITMAP
FE
C0
C0
C0
FC
C0
C0
C0
C0
C0
ENDCHAR

STARTCHAR G
ENCODING 71
SWIDTH 714 0
DWIDTH 10 0
BBX 9 10 0 0
BITMAP
3F00
6180
C180
C000
C000
C780
C180
C180
6380
3D80
ENDCHAR

STARTCHAR H
ENCODING 72
SWIDTH 642 0
DWIDTH 9 0
BBX 8 10 0 0
BITMAP
C3
C3
C3
C3
FF
C3
C3
C3
C3
C3
ENDCHAR

STARTCHAR I
ENCODING 73
SWIDTH 214 0
DWIDTH 3 0
BBX 2 10 0 0
BITMAP
C0
C0
C0
C0
C0
C0
C0
C0
C0
C0
ENDCHAR

STARTCHAR J
ENCODING 74
SWIDTH 500 0
DWIDTH 7 0
BBX 6 10 0 0
BITMAP
0C
0C
0C
0C
0C
0C
0C
CC
CC
78
ENDCHAR

STARTCHAR K
ENCODING 75
SWIDTH 642 0
DWIDTH 9 0
BBX 8 10 0 0
BITMAP
C6
CC
D8
F0
E0
F0
D8
CC
C6
C3
ENDCHAR

STARTCHAR L
ENCODING 76
SWIDTH 500 0
DWIDTH 7 0
BBX 6 10 0 0
BITMAP
C0
C0
C0
C0
C0
C0
C0
C0
C0
FC
ENDCHAR

STARTCHAR M
ENCODING 77
SWIDTH 857 0
DWIDTH 12 0
BBX 11 10 0 0
BITMAP
E0E0
E0E0
F1E0
F1E0
DB60
DB60
DB60
CE60
CE60
C460
ENDCHAR

STARTCHAR N
ENCODING 78
SWIDTH 642 0
DWIDTH 9 0
BBX 8 10 0 0
BITMAP
C3
E3
E3
F3
F3
DB
DB
CF
CF
C7
ENDCHAR

STARTCHAR O
ENCODING 79
SWIDTH 714 0
DWIDTH 10 0
BBX 9 10 0 0
BITMAP
3E00
6300
C180
C180
C180
C180
C180
C180
6300
3E00
ENDCHAR

STARTCHAR P
ENCODING 80
SWIDTH 571 0
DWIDTH 8 0
BBX 7 10 0 0
BITMAP
FC
C6
C6
C6
C6
FC
C0
C0
C0
C0
ENDCHAR

STARTCHAR Q
ENCODING 81
SWIDTH 714 0
DWIDTH 10 0
BBX 9 11 0 -1
BITMAP
3E00
6300
C180
C180
C180
C180
C180
CD80
6700
3F00
0180
ENDCHAR

STARTCHAR R
ENCODING 82
SWIDTH 642 0
DWIDTH 9 0
BBX 8 10 0 0
BITMAP
FE
C3
C3
C3
FE
C3
C3
C3
C3
C3
ENDCHAR

STARTCHAR S
ENCODING 83
SWIDTH 571 0
DWIDTH 8 0
BBX 7 10 0 0
BITMAP
7C
C6
C6
F0
7C
1E
C6
C6
C6
7C
ENDCHAR

STARTCHAR T
ENCODING 84
SWIDTH 642 0
DWIDTH 9 0
BBX 8 10 0 0
BITMAP
FF
18
18
18
18
18
18
18
18
18
ENDCHAR

STARTCHAR U
ENCODING 85
SWIDTH 642 0
DWIDTH 9 0
BBX 8 10 0 0
BITMAP
C3
C3
C3
C3
C3
C3
C3
C3
66
3C
ENDCHAR

STARTCHAR V
ENCODING 86
SWIDTH 642 0
DWIDTH 9 0
BBX 8 10 0 0
BITMAP
C3
C3
C3
66
66
66
24
3C
18
18
ENDCHAR

STARTCHAR W
ENCODING 87
SWIDTH 1000 0
DWIDTH 14 0
BBX 13 10 0 0
BITMAP
C218
C218
6730
6730
6730
2FA0
3DE0
38E0
18C0
18C0
ENDCHAR

STARTCHAR X
ENCODING 88
SWIDTH 642 0
DWIDTH 9 0
BBX 8 10 0 0
BITMAP
C3
C3
66
3C
18
18
3C
66
C3
C3
ENDCHAR

STARTCHAR Y
ENCODING 89
SWIDTH 642 0
DWIDTH 9 0
BBX 8 10 0 0
BITMAP
C3
C3
66
66
3C
18
18
18
18
18
ENDCHAR

STARTCHAR Z
ENCODING 90
SWIDTH 642 0
DWIDTH 9 0
BBX 8 10 0 0
BITMAP
FF
03
06
0C
18
18
30
60
C0
FF
ENDCHAR

STARTCHAR braketleft
ENCODING 91
SWIDTH 500 0
DWIDTH 7 0
BBX 5 13 1 -3
BITMAP
F8
C0
C0
C0
C0
C0
C0
C0
C0
C0
C0
C0
F8
ENDCHAR

STARTCHAR backslash
ENCODING 92
SWIDTH 571 0
DWIDTH 8 0
BBX 6 10 1 0
BITMAP
C0
C0
60
60
30
30
18
18
0C
0C
ENDCHAR

STARTCHAR bracketright
ENCODING 93
SWIDTH 500 0
DWIDTH 7 0
BBX 5 13 1 -3
BITMAP
F8
18
18
18
18
18
18
18
18
18
18
18
F8
ENDCHAR

STARTCHAR asciicircum
ENCODING 94
SWIDTH 571 0
DWIDTH 8 0
BBX 6 8 1 1
BITMAP
30
78
FC
B4
30
30
30
30
ENDCHAR

STARTCHAR underscore
ENCODING 95
SWIDTH 714 0
DWIDTH 10 0
BBX 8 6 1 2
BITMAP
30
60
FF
FF
60
30
ENDCHAR

STARTCHAR quoteleft
ENCODING 96
SWIDTH 285 0
DWIDTH 4 0
BBX 3 5 0 5
BITMAP
60
C0
C0
E0
E0
ENDCHAR

STARTCHAR a
ENCODING 97
SWIDTH 571 0
DWIDTH 8 0
BBX 7 7 0 0
BITMAP
78
CC
0C
7C
CC
CC
76
ENDCHAR

STARTCHAR b
ENCODING 98
SWIDTH 571 0
DWIDTH 8 0
BBX 7 10 0 0
BITMAP
C0
C0
C0
FC
C6
C6
C6
C6
C6
FC
ENDCHAR

STARTCHAR c
ENCODING 99
SWIDTH 571 0
DWIDTH 8 0
BBX 7 7 0 0
BITMAP
7C
C6
C0
C0
C6
C6
7C
ENDCHAR

STARTCHAR d
ENCODING 100
SWIDTH 571 0
DWIDTH 8 0
BBX 7 10 0 0
BITMAP
06
06
06
7E
C6
C6
C6
C6
C6
7E
ENDCHAR

STARTCHAR e
ENCODING 101
SWIDTH 571 0
DWIDTH 8 0
BBX 7 7 0 0
BITMAP
7C
C6
C6
FE
C0
C6
7C
ENDCHAR

STARTCHAR f
ENCODING 102
SWIDTH 428 0
DWIDTH 6 0
BBX 5 10 0 0
BITMAP
38
60
60
F8
60
60
60
60
60
60
ENDCHAR

STARTCHAR g
ENCODING 103
SWIDTH 571 0
DWIDTH 8 0
BBX 7 10 0 -3
BITMAP
7E
C6
C6
C6
C6
C6
7E
06
C6
7C
ENDCHAR

STARTCHAR h
ENCODING 104
SWIDTH 571 0
DWIDTH 8 0
BBX 7 10 0 0
BITMAP
C0
C0
C0
FC
C6
C6
C6
C6
C6
C6
ENDCHAR

STARTCHAR i
ENCODING 105
SWIDTH 214 0
DWIDTH 3 0
BBX 2 10 0 0
BITMAP
C0
C0
00
C0
C0
C0
C0
C0
C0
C0
ENDCHAR

STARTCHAR j
ENCODING 106
SWIDTH 357 0
DWIDTH 5 0
BBX 4 12 0 -2
BITMAP
30
30
00
30
30
30
30
30
30
30
30
E0
ENDCHAR

STARTCHAR k
ENCODING 107
SWIDTH 571 0
DWIDTH 8 0
BBX 7 10 0 0
BITMAP
C0
C0
C0
CC
D8
F0
F0
D8
CC
C6
ENDCHAR

STARTCHAR l
ENCODING 108
SWIDTH 214 0
DWIDTH 3 0
BBX 2 10 0 0
BITMAP
C0
C0
C0
C0
C0
C0
C0
C0
C0
C0
ENDCHAR

STARTCHAR m
ENCODING 109
SWIDTH 785 0
DWIDTH 11 0
BBX 10 7 0 0
BITMAP
FB80
CCC0
CCC0
CCC0
CCC0
CCC0
CCC0
ENDCHAR

STARTCHAR n
ENCODING 110
SWIDTH 571 0
DWIDTH 8 0
BBX 7 7 0 0
BITMAP
FC
C6
C6
C6
C6
C6
C6
ENDCHAR

STARTCHAR o
ENCODING 111
SWIDTH 571 0
DWIDTH 8 0
BBX 7 7 0 0
BITMAP
7C
C6
C6
C6
C6
C6
7C
ENDCHAR

STARTCHAR p
ENCODING 112
SWIDTH 571 0
DWIDTH 8 0
BBX 7 10 0 -3
BITMAP
FC
C6
C6
C6
C6
C6
FC
C0
C0
C0
ENDCHAR

STARTCHAR q
ENCODING 113
SWIDTH 571 0
DWIDTH 8 0
BBX 7 10 0 -3
BITMAP
7E
C6
C6
C6
C6
C6
7E
06
06
06
ENDCHAR

STARTCHAR r
ENCODING 114
SWIDTH 428 0
DWIDTH 6 0
BBX 5 7 0 0
BITMAP
F8
D8
C0
C0
C0
C0
C0
ENDCHAR

STARTCHAR s
ENCODING 115
SWIDTH 500 0
DWIDTH 7 0
BBX 6 7 0 0
BITMAP
78
CC
E0
78
1C
CC
78
ENDCHAR

STARTCHAR t
ENCODING 116
SWIDTH 428 0
DWIDTH 6 0
BBX 5 9 0 0
BITMAP
60
60
F8
60
60
60
60
60
38
ENDCHAR

STARTCHAR u
ENCODING 117
SWIDTH 571 0
DWIDTH 8 0
BBX 7 7 0 0
BITMAP
C6
C6
C6
C6
C6
C6
7E
ENDCHAR

STARTCHAR v
ENCODING 118
SWIDTH 642 0
DWIDTH 9 0
BBX 8 7 0 0
BITMAP
C3
C3
66
66
24
3C
18
ENDCHAR

STARTCHAR w
ENCODING 119
SWIDTH 857 0
DWIDTH 12 0
BBX 11 7 0 0
BITMAP
C460
C460
6EC0
6EC0
7BC0
3180
3180
ENDCHAR

STARTCHAR x
ENCODING 120
SWIDTH 500 0
DWIDTH 7 0
BBX 6 7 0 0
BITMAP
CC
CC
78
30
78
CC
CC
ENDCHAR

STARTCHAR y
ENCODING 121
SWIDTH 571 0
DWIDTH 8 0
BBX 7 10 0 -3
BITMAP
C6
C6
66
6C
2C
3C
18
18
D8
70
ENDCHAR

STARTCHAR z
ENCODING 122
SWIDTH 500 0
DWIDTH 7 0
BBX 6 7 0 0
BITMAP
FC
0C
18
30
60
C0
FC
ENDCHAR

STARTCHAR braceleft
ENCODING 123
SWIDTH 571 0
DWIDTH 8 0
BBX 6 13 1 -3
BITMAP
1C
30
30
30
30
30
E0
30
30
30
30
30
1C
ENDCHAR

STARTCHAR bar
ENCODING 124
SWIDTH 357 0
DWIDTH 5 0
BBX 2 13 2 -3
BITMAP
C0
C0
C0
C0
C0
C0
C0
C0
C0
C0
C0
C0
C0
ENDCHAR

STARTCHAR braceright
ENCODING 125
SWIDTH 571 0
DWIDTH 8 0
BBX 6 13 1 -3
BITMAP
E0
30
30
30
30
30
1C
30
30
30
30
30
E0
ENDCHAR

STARTCHAR tilda
ENCODING 126
SWIDTH 714 0
DWIDTH 10 0
BBX 8 3 1 3
BITMAP
33
7E
CC
ENDCHAR
ENDFONT
